<?xml version="1.0" encoding="UTF-8" standalone="no"?>
<svg xmlns:rdf="http://www.w3.org/1999/02/22-rdf-syntax-ns#" xmlns="http://www.w3.org/2000/svg" version="1.1" xml:space="preserve" viewBox="0 0 500 500" enable-background="new 0 0 500 500" y="0px" x="0px" xmlns:cc="http://creativecommons.org/ns#" xmlns:dc="http://purl.org/dc/elements/1.1/"><g transform="matrix(1.2346 0 0 1.2346 -94.624 -57.497)"><path d="m209.84 47.431c-.68582-.02812-1.367.14937-1.9535.55212-1.564 1.077-1.8595 3.3612-.66254 5.1032l20.166 29.273c-32.063 14.916-54.548 43.26-57.413 76.34h218.31c-2.855-33.08-25.341-61.424-57.402-76.34l20.16-29.27c1.197-1.74.89719-4.0258-.6678-5.1058-1.563-1.074-3.8048-.54048-4.9928 1.2015l-20.949 30.409c-13.807-5.439-29.14-8.4711-45.3-8.4711s-31.494 3.0291-45.3 8.4711l-20.95-30.413c-.75063-1.0875-1.9068-1.7041-3.0498-1.751zm-78.234 126.37c-13.45 0-24.354 10.904-24.354 24.354v98.507c0 13.45 10.904 24.354 24.354 24.354 13.451 0 24.354-10.904 24.354-24.354v-98.507c0-13.45-10.903-24.354-24.354-24.354zm295.06 0c-13.451 0-24.354 10.904-24.354 24.354v98.507c0 13.45 10.903 24.354 24.354 24.354 13.45 0 24.354-10.904 24.354-24.354v-98.507c0-13.45-10.904-24.354-24.354-24.354zm-256.69.75195v177.92c0 10.566 8.566 19.132 19.135 19.132h22.634v54.744c0 13.451 10.903 24.354 24.354 24.354s24.354-10.903 24.354-24.354v-54.744h37.371v54.744c0 13.451 10.902 24.354 24.354 24.354s24.354-10.903 24.354-24.354v-54.744h22.634c10.569 0 19.135-8.5614 19.135-19.132v-177.92h-218.33z"/></g></svg>
