<?xml version="1.0" encoding="UTF-8" standalone="no"?>
<svg
   xmlns:dc="http://purl.org/dc/elements/1.1/"
   xmlns:cc="http://creativecommons.org/ns#"
   xmlns:rdf="http://www.w3.org/1999/02/22-rdf-syntax-ns#"
   xmlns:svg="http://www.w3.org/2000/svg"
   xmlns="http://www.w3.org/2000/svg"
   xmlns:sodipodi="http://sodipodi.sourceforge.net/DTD/sodipodi-0.dtd"
   xmlns:inkscape="http://www.inkscape.org/namespaces/inkscape"
   id="Layer_1"
   enable-background="new 0 0 500 500"
   xml:space="preserve"
   height="500"
   viewBox="0 0 500 500"
   width="500"
   version="1.1"
   y="0px"
   x="0px"
   inkscape:version="0.91 r13725"
   sodipodi:docname="android2.svg"><metadata
     id="metadata9"><rdf:RDF><cc:Work
         rdf:about=""><dc:format>image/svg+xml</dc:format><dc:type
           rdf:resource="http://purl.org/dc/dcmitype/StillImage" /><dc:title></dc:title></cc:Work></rdf:RDF></metadata><defs
     id="defs7" /><sodipodi:namedview
     pagecolor="#ffffff"
     bordercolor="#666666"
     borderopacity="1"
     objecttolerance="10"
     gridtolerance="10"
     guidetolerance="10"
     inkscape:pageopacity="0"
     inkscape:pageshadow="2"
     inkscape:window-width="1855"
     inkscape:window-height="1056"
     id="namedview5"
     showgrid="false"
     inkscape:zoom="0.78666667"
     inkscape:cx="-81.991525"
     inkscape:cy="150"
     inkscape:window-x="65"
     inkscape:window-y="24"
     inkscape:window-maximized="1"
     inkscape:current-layer="Layer_1" /><g
     id="androd"
     transform="matrix(1.2346093,0,0,1.2346093,-94.623902,-57.497392)"><path
       id="path7"
       d="m 209.84,47.431 c -0.68582,-0.02812 -1.367,0.14937 -1.9535,0.55212 -1.564,1.077 -1.8595,3.3612 -0.66254,5.1032 l 20.166,29.273 c -32.063,14.916 -54.548,43.26 -57.413,76.34 l 218.31,0 c -2.855,-33.08 -25.341,-61.424 -57.402,-76.34 l 20.16,-29.27 c 1.197,-1.74 0.89719,-4.0258 -0.6678,-5.1058 -1.563,-1.074 -3.8048,-0.54048 -4.9928,1.2015 l -20.949,30.409 c -13.807,-5.439 -29.14,-8.4711 -45.3,-8.4711 -16.16,0 -31.494,3.0291 -45.3,8.4711 l -20.95,-30.413 c -0.75063,-1.0875 -1.9068,-1.7041 -3.0498,-1.751 z m 23.691,56.911 c 6.668,0 12.073,5.4053 12.073,12.078 10e-4,6.671 -5.4051,12.081 -12.073,12.081 -6.673,0 -12.078,-5.409 -12.078,-12.081 0,-6.671 5.4023,-12.078 12.078,-12.078 z m 91.205,0 c 6.675,0 12.078,5.4073 12.078,12.078 0,6.671 -5.4054,12.081 -12.078,12.081 -6.668,0 -12.073,-5.409 -12.073,-12.081 0,-6.673 5.4051,-12.078 12.073,-12.078 z m -193.13,69.457 c -13.45,0 -24.354,10.904 -24.354,24.354 l 0,98.507 c 0,13.45 10.904,24.354 24.354,24.354 13.451,0 24.354,-10.904 24.354,-24.354 l 0,-98.507 c 0,-13.45 -10.903,-24.354 -24.354,-24.354 z m 295.06,0 c -13.451,0 -24.354,10.904 -24.354,24.354 l 0,98.507 c 0,13.45 10.903,24.354 24.354,24.354 13.45,0 24.354,-10.904 24.354,-24.354 l 0,-98.507 c 0,-13.45 -10.904,-24.354 -24.354,-24.354 z m -256.69,0.75195 0,177.92 c 0,10.566 8.566,19.132 19.135,19.132 l 22.634,0 0,54.744 c 0,13.451 10.903,24.354 24.354,24.354 13.451,0 24.354,-10.903 24.354,-24.354 l 0,-54.744 37.371,0 0,54.744 c 0,13.451 10.902,24.354 24.354,24.354 13.452,0 24.354,-10.903 24.354,-24.354 l 0,-54.744 22.634,0 c 10.569,0 19.135,-8.5614 19.135,-19.132 l 0,-177.92 -218.33,0 z"
       inkscape:connector-curvature="0" /></g></svg>