<?xml version="1.0" encoding="UTF-8" standalone="no"?>
<svg id="Layer_1" xmlns:rdf="http://www.w3.org/1999/02/22-rdf-syntax-ns#" xmlns="http://www.w3.org/2000/svg" y="0px" xml:space="preserve" height="500" viewBox="0 0 500 500" width="500" version="1.1" enable-background="new 0 0 500 500" x="0px" xmlns:cc="http://creativecommons.org/ns#" xmlns:dc="http://purl.org/dc/elements/1.1/">
  <g id="androd">
    <path id="path7" d="m180.7 48.365c-0.68582-0.02812-1.367 0.14937-1.9535 0.55212-1.564 1.077-1.8595 3.3612-0.66254 5.1032l20.166 29.273c-32.063 14.916-54.548 43.26-57.413 76.34h218.31c-2.855-33.08-25.341-61.424-57.402-76.34l20.16-29.27c1.197-1.74 0.89719-4.0258-0.6678-5.1058-1.563-1.074-3.8048-0.54048-4.9928 1.2015l-20.949 30.409c-13.807-5.439-29.14-8.4711-45.3-8.4711s-31.494 3.0291-45.3 8.4711l-20.95-30.413c-0.75063-1.0875-1.9068-1.7041-3.0498-1.751zm-78.23 126.38c-13.45 0-24.354 10.904-24.354 24.354v98.507c0 13.45 10.904 24.354 24.354 24.354 13.451 0 24.354-10.904 24.354-24.354v-98.507c0-13.45-10.903-24.354-24.354-24.354zm295.06 0c-13.451 0-24.354 10.904-24.354 24.354v98.507c0 13.45 10.903 24.354 24.354 24.354 13.45 0 24.354-10.904 24.354-24.354v-98.507c0-13.45-10.904-24.354-24.354-24.354zm-256.69 0.75195v177.92c0 10.566 8.566 19.132 19.135 19.132h22.634v54.744c0 13.451 10.903 24.354 24.354 24.354s24.354-10.903 24.354-24.354v-54.744h37.371v54.744c0 13.451 10.902 24.354 24.354 24.354s24.354-10.903 24.354-24.354v-54.744h22.634c10.569 0 19.135-8.5614 19.135-19.132v-177.92h-218.33z"/>
    <path id="rect3353" fill="#fff" d="m193.7 104.04c-8.25 0-14.92 6.676-14.92 14.912 0 8.238 6.68 14.914 14.92 14.914 8.23 0 14.9-6.678 14.9-14.914 0-8.238-6.67-14.912-14.9-14.912zm112.6 0c-8.23 0-14.91 6.674-14.91 14.912s6.68 14.914 14.91 14.914c8.24 0 14.91-6.678 14.91-14.914 0-8.235-6.67-14.912-14.91-14.912z"/>
  </g>
</svg>
