<?xml version="1.0" encoding="UTF-8" standalone="no"?>
<!-- Created with Inkscape (http://www.inkscape.org/) -->
<svg id="svg4957" xmlns:rdf="http://www.w3.org/1999/02/22-rdf-syntax-ns#" xmlns="http://www.w3.org/2000/svg" height="500" width="500" version="1.1" xmlns:cc="http://creativecommons.org/ns#" xmlns:xlink="http://www.w3.org/1999/xlink" viewBox="0 0 500.00005 500.00005" xmlns:dc="http://purl.org/dc/elements/1.1/">
 <metadata id="metadata4962">
  <rdf:RDF>
   <cc:Work rdf:about="">
    <dc:format>image/svg+xml</dc:format>
    <dc:type rdf:resource="http://purl.org/dc/dcmitype/StillImage"/>
    <dc:title/>
   </cc:Work>
  </rdf:RDF>
 </metadata>
 <g id="layer2">
  <path id="path6021" d="m250.71 2.0762a247.96 247.96 0 0 0 -247.96 247.96 247.96 247.96 0 0 0 247.96 247.96 247.96 247.96 0 0 0 247.97 -247.96 247.96 247.96 0 0 0 -247.97 -247.96zm0 132.85a115.11 115.11 0 0 1 115.11 115.11 115.11 115.11 0 0 1 -115.11 115.1 115.11 115.11 0 0 1 -115.1 -115.1 115.11 115.11 0 0 1 115.1 -115.11zm1.43 25.07a89.286 89.286 0 0 0 -89.28 89.29 89.286 89.286 0 0 0 89.28 89.28 89.286 89.286 0 0 0 89.29 -89.28 89.286 89.286 0 0 0 -89.29 -89.29z"/>
 </g>
</svg>
