<?xml version="1.0" encoding="UTF-8" standalone="no"?>
<svg xmlns:rdf="http://www.w3.org/1999/02/22-rdf-syntax-ns#" xmlns="http://www.w3.org/2000/svg" viewBox="0 0 500 500" version="1.1" xmlns:cc="http://creativecommons.org/ns#" xmlns:dc="http://purl.org/dc/elements/1.1/">
 <title>docker</title>
 <g style="fill-rule:evenodd" transform="matrix(1.5183 0 0 1.5183 -1.7932 269.03)">
  <path d="m143.4-82.39v32.627h33.57v-32.627h-33.57zm-82.358 41.851v32.614h33.559v-32.614h-33.559zm41.171 0v32.614h33.576v-32.614h-33.576zm41.186 0v32.614h33.57v-32.614h-33.57zm118.48 18.803c-14.947 14.504-15.91 40.006-3.9175 56.605-24.253 13.458-52.792 7.4751-79.222 8.8063h-176.36c-6.0905 35.854 11.463 74.295 43.307 92.207 35.954 20.935 80.221 18.609 119.44 9.8308 46.683-11.185 88.903-42.521 109.34-86.472 1.8654-16.6 18.432-8.5783 29.641-14.113 11.41-3.759 21.77-11.959 26.23-23.342-9.91-10.174-26.05-10.125-39.22-8.104-9.68-5.7104-9.86-23.405-22.29-29.837-2.23-1.96-4.57-3.809-6.95-5.582zm-242.03 23.023v32.633h33.559v-32.633h-33.559zm41.188 0v32.633h33.559v-32.633h-33.559zm41.171 0v32.633h33.576v-32.633h-33.576zm41.186 0v32.633h33.57v-32.633h-33.57zm41.184 0v32.633h33.57v-32.633h-33.57zm-117.85 71.57c17.862-1.469 24.795 26.633 7.55 33.043-14.525 7.26-32.348-10.571-22.829-24.539 3.2-5.178 9.136-8.678 15.279-8.504z"/>
  <path style="fill:#fff" d="m66.728 72.853c-17.862-1.463-24.796 26.641-7.545 33.047 14.526 7.24 32.343-10.583 22.824-24.548-3.2-5.177-9.138-8.675-15.279-8.499z"/>
  <path d="m66.728 81.031c-20.427.92313.17742 32.014 8.9084 12.017 1.818-5.62-2.736-12.508-8.908-12.017z"/>
 </g>
</svg>
