<?xml version="1.0" encoding="UTF-8" standalone="no"?>
<svg id="svg2" xmlns:rdf="http://www.w3.org/1999/02/22-rdf-syntax-ns#" xmlns="http://www.w3.org/2000/svg" height="500" width="500" version="1.1" xmlns:cc="http://creativecommons.org/ns#" xmlns:dc="http://purl.org/dc/elements/1.1/" viewBox="0 0 500 500">
 <title id="title4">docker</title>
 <g id="g6" fill-rule="evenodd" transform="matrix(1.5183 0 0 1.5183 -2.2817 197.16)">
  <path id="path8" d="m143.4-82.39v32.627h33.57v-32.627zm-82.358 41.851v32.614h33.559v-32.614zm41.171 0v32.614h33.576v-32.614zm41.186 0v32.614h33.57v-32.614zm118.48 18.803-3.5444 3.9754c-7.1125 7.9909-9.2235 21.28-8.2617 31.482 0.72174 7.5008 3.1381 15.124 7.8886 21.148-3.6104 2.1102-7.7118 3.7885-11.362 5.0003-7.4458 2.4436-15.529 3.806-23.391 3.806h-220.83l-0.47173 4.9446c-1.5798 16.512 0.7476 33.044 7.77 48.117l3.0234 5.991 0.34522 0.55321c20.764 34.282 57.228 48.719 96.966 48.719 76.932 0 140.38-33.394 169.52-103.95 19.476 0.98844 39.395-4.6122 48.923-22.686l2.4273-4.6122-4.6208-2.5881h0.004c-11.28-6.319-26.28-7.186-39.06-3.528-1.58-13.209-10.5-24.781-21.12-33.077l-4.2113-3.2935zm-242.03 23.023v32.633h33.559v-32.633zm41.188 0v32.633h33.559v-32.633zm41.171 0v32.633h33.576v-32.633zm41.186 0v32.633h33.57v-32.633zm41.184 0v32.633h33.57v-32.633zm-117.85 71.57c9.7944 0 17.763 7.739 17.763 17.257 0 9.5127-7.9602 17.257-17.756 17.257v0.007c-9.8011 0-17.769-7.744-17.769-17.257 0-9.5177 7.9667-17.263 17.763-17.263z"/>
  <path id="rect3376" d="m99.031 307.78 0.002 0.002c-14.874 0-26.971 11.758-26.971 26.209 0 14.444 12.099 26.201 26.98 26.201v-0.01c14.873 0 26.959-11.758 26.959-26.201 0-14.451-12.1-26.201-26.971-26.201z" transform="matrix(.65863 0 0 .65863 1.5028 -129.86)" fill="#fff"/>
  <path id="path8" d="m66.728 81.031c-5.1672 0-9.3574 4.0721-9.3574 9.0894 0 5.0122 4.1952 9.0829 9.3574 9.0829 5.1556 0 9.351-4.0659 9.351-9.0765 0-5.0172-4.1954-9.0958-9.351-9.0958z"/>
 </g>
</svg>
