<?xml version="1.0" encoding="UTF-8" standalone="no"?>
<svg
   xmlns:dc="http://purl.org/dc/elements/1.1/"
   xmlns:cc="http://creativecommons.org/ns#"
   xmlns:rdf="http://www.w3.org/1999/02/22-rdf-syntax-ns#"
   xmlns:svg="http://www.w3.org/2000/svg"
   xmlns="http://www.w3.org/2000/svg"
   viewBox="0 0 500 500"
   version="1.1"
   width="500"
   height="500"
   id="svg2">
  <metadata
     id="metadata13">
    <rdf:RDF>
      <cc:Work
         rdf:about="">
        <dc:format>image/svg+xml</dc:format>
        <dc:type
           rdf:resource="http://purl.org/dc/dcmitype/StillImage" />
        <dc:title>docker</dc:title>
      </cc:Work>
    </rdf:RDF>
  </metadata>
  <defs
     id="defs11" />
  <title
     id="title4">docker</title>
  <g
     transform="matrix(1.4788154,0,0,1.4788154,4.8727034,198.43935)"
     style="fill-rule:evenodd"
     id="g6">
    <path
       id="path8"
       d="m 143.4,-82.39 c 0,10.875667 0,21.751333 0,32.627 11.19,0 22.38,0 33.57,0 0,-10.875667 0,-21.751333 0,-32.627 -11.19,0 -22.38,0 -33.57,0 z m -82.358,41.851 c 0,10.871333 0,21.742667 0,32.614 11.186333,0 22.372667,0 33.559,0 0,-10.871333 0,-21.742667 0,-32.614 -11.186333,0 -22.372667,0 -33.559,0 z m 41.171,0 c 0,10.871333 0,21.742667 0,32.614 11.192,0 22.384,0 33.576,0 0,-10.871333 0,-21.742667 0,-32.614 -11.192,0 -22.384,0 -33.576,0 z m 41.186,0 c 0,10.871333 0,21.742667 0,32.614 11.19,0 22.38,0 33.57,0 0,-10.871333 0,-21.742667 0,-32.614 -11.19,0 -22.38,0 -33.57,0 z m 118.48,18.803 c -14.94654,14.5039379 -15.91027,40.006247 -3.9175,56.6054 -24.25299,13.457999 -52.79172,7.475119 -79.22245,8.8063 -58.78685,0 -117.5737,0 -176.36055,0 -6.0905271,35.853924 11.463162,74.29526 43.306715,92.2069 35.953937,20.93471 80.220885,18.60859 119.442905,9.8308 46.68291,-11.18493 88.90274,-42.52102 109.34362,-86.472051 1.86544,-16.600378 18.4321,-8.578338 29.64123,-14.112515 C 315.52106,41.369981 325.87885,33.17032 330.33739,21.786553 320.43383,11.613082 304.28948,11.661532 291.1242,13.682624 281.44499,7.972643 281.25625,-9.7216878 268.83208,-16.154411 266.59579,-18.113639 264.2648,-19.962703 261.879,-21.736 Z M 19.849,1.287 c 0,10.877667 0,21.755333 0,32.633 11.186333,0 22.372667,0 33.559,0 0,-10.877667 0,-21.755333 0,-32.633 -11.186333,0 -22.372667,0 -33.559,0 z m 41.188,0 c 0,10.877667 0,21.755333 0,32.633 11.186333,0 22.372667,0 33.559,0 0,-10.877667 0,-21.755333 0,-32.633 -11.186333,0 -22.372667,0 -33.559,0 z m 41.171,0 c 0,10.877667 0,21.755333 0,32.633 11.192,0 22.384,0 33.576,0 0,-10.877667 0,-21.755333 0,-32.633 -11.192,0 -22.384,0 -33.576,0 z m 41.186,0 c 0,10.877667 0,21.755333 0,32.633 11.19,0 22.38,0 33.57,0 0,-10.877667 0,-21.755333 0,-32.633 -11.19,0 -22.38,0 -33.57,0 z m 41.184,0 c 0,10.877667 0,21.755333 0,32.633 11.19,0 22.38,0 33.57,0 0,-10.877667 0,-21.755333 0,-32.633 -11.19,0 -22.38,0 -33.57,0 z M 66.728,72.857 C 84.590152,71.388012 91.522875,99.490258 74.277745,105.89534 59.752998,113.15538 41.929816,95.328805 51.449079,81.360722 54.648974,76.183037 60.585407,72.682534 66.728,72.857 Z" />
    <path
       id="rect3376"
       d="M 66.727588,72.853141 C 48.865683,71.389587 41.931949,99.494478 59.18315,105.89541 73.708914,113.1447 91.525728,95.317188 82.00734,81.351658 78.806644,76.17503 72.869378,72.677272 66.727588,72.853141 Z"
       style="fill:#ffffff" />
    <path
       id="path7"
       d="m 66.728,81.031 c -20.426588,0.923129 0.177415,32.01385 8.908361,12.017214 C 77.453755,87.428087 72.900391,80.539721 66.728,81.031 Z" />
  </g>
</svg>
