<?xml version="1.0" encoding="UTF-8" standalone="no"?>
<svg id="svg2" xmlns:rdf="http://www.w3.org/1999/02/22-rdf-syntax-ns#" xmlns="http://www.w3.org/2000/svg" height="500" width="500" version="1.1" y="0px" x="0px" xmlns:cc="http://creativecommons.org/ns#" xmlns:dc="http://purl.org/dc/elements/1.1/">
 <path id="path4" d="m406.28 219.36c-24.83-0.50856-42.797 31.4-28.838 52.201 10.773 18.346 39.875 23.297 54.486 6.8145 14.074-14.251 13.256-41.424-4.4356-52.461-5.9997-4.316-13.822-6.8502-21.213-6.5547zm-152.19 0.0117c-24.54-0.51135-42.391 30.626-29.225 51.491 10.661 19.462 41.696 24.311 56.032 6.2825 13.264-14.775 11.269-41.541-6.5547-51.883-5.9452-3.9457-13.1-6.1306-20.252-5.8906zm-0.75585-0.009c-24.41-0.4825-42.407 30.471-29.346 51.32 10.352 19.04 40.128 24.442 54.996 7.6973 14.08-14.35 13.27-41.344-4.4395-52.467-6.0018-4.3117-13.819-6.8465-21.211-6.5508zm-152.18 0.0117c-24.175-0.49317-42.023 29.797-29.672 50.676 10.078 19.794 41.061 25.311 55.854 7.7891 13.919-14.622 12.174-42.063-5.9238-52.572-5.8416-3.878-13.11-6.1582-20.258-5.8926zm183.54-29.521l53.617-108.42c17.761 36.233 35.524 72.465 53.285 108.7 19.244-56.762 38.488-113.52 57.732-170.29h-222.24c19.203 56.668 38.406 113.34 57.609 170zm-188.73 118.61c-5.2434 16.105-8.3005 59.443 40.992 84.852 47.19-10.112 106.09-72.453 108.93-85.858 46.931 7.3363 67.914-40.981 65.667-49.221 5.9924 0 36.895-0.74905 36.895-0.74905 15.73 69.662 85.987 49.807 90.481 40.618 16.479 40.449-0.0753 62.868-7.4354 72.364-28.798 37.156-72.117 24.479-140 48.061-78.74 27.35-132.71 84.78-204.9 51.56-39.319-27.63-53.245-73.43-6.123-165.03 1.505-2.9256 13.326-0.32493 15.501 3.4016z"/>
</svg>
