<?xml version="1.0" encoding="UTF-8" standalone="no"?>
<svg
   xmlns:dc="http://purl.org/dc/elements/1.1/"
   xmlns:cc="http://creativecommons.org/ns#"
   xmlns:rdf="http://www.w3.org/1999/02/22-rdf-syntax-ns#"
   xmlns:svg="http://www.w3.org/2000/svg"
   xmlns="http://www.w3.org/2000/svg"
   xmlns:sodipodi="http://sodipodi.sourceforge.net/DTD/sodipodi-0.dtd"
   xmlns:inkscape="http://www.inkscape.org/namespaces/inkscape"
   id="svg2"
   height="500"
   width="500"
   version="1.1"
   y="0px"
   x="0px"
   inkscape:version="0.91 r13725"
   sodipodi:docname="jest.svg">
  <metadata
     id="metadata8">
    <rdf:RDF>
      <cc:Work
         rdf:about="">
        <dc:format>image/svg+xml</dc:format>
        <dc:type
           rdf:resource="http://purl.org/dc/dcmitype/StillImage" />
      </cc:Work>
    </rdf:RDF>
  </metadata>
  <defs
     id="defs6" />
  <sodipodi:namedview
     pagecolor="#ffffff"
     bordercolor="#666666"
     borderopacity="1"
     objecttolerance="10"
     gridtolerance="10"
     guidetolerance="10"
     inkscape:pageopacity="0"
     inkscape:pageshadow="2"
     inkscape:window-width="691"
     inkscape:window-height="480"
     id="namedview4"
     showgrid="false"
     inkscape:zoom="0.472"
     inkscape:cx="250"
     inkscape:cy="250"
     inkscape:window-x="665"
     inkscape:window-y="27"
     inkscape:window-maximized="0"
     inkscape:current-layer="svg2" />
  <path
     id="path4"
     d="m 348.44727,257.48828 c 0,0 -30.90214,0.74805 -36.89454,0.74805 2.247,8.24 -18.73501,56.557 -65.66601,49.2207 -2.84,13.405 -61.73969,75.74542 -108.92969,85.85742 -49.292499,-25.409 -46.235586,-68.74656 -40.992186,-84.85156 l 0.0078,0 c -2.175,-3.72653 -13.996953,-6.32794 -15.501953,-3.40234 -47.122,91.6 -33.195953,137.39929 6.123047,165.02929 72.190002,33.22 126.160392,-24.20859 204.900392,-51.55859 67.883,-23.582 111.202,-10.9065 140,-48.0625 7.3601,-9.496 23.91455,-31.91428 7.43555,-72.36328 -4.494,9.189 -74.75242,29.04481 -90.48242,-40.61719 z M 102.49609,219.35547 c -0.44731,-0.003 -0.89504,0.003 -1.34179,0.0195 -24.175003,-0.49317 -42.022878,29.79678 -29.671878,50.67578 10.078,19.794 41.060518,25.31096 55.853518,7.78906 13.919,-14.622 12.17397,-42.06326 -5.92383,-52.57226 -5.4765,-3.63563 -12.20632,-5.86625 -18.91602,-5.91211 z m 152.22852,-0.0156 c -0.46478,-0.003 -0.92863,0.003 -1.39063,0.0215 l 0,0.002 c -24.41,-0.4825 -42.4067,30.47131 -29.3457,51.32031 6.35055,11.6803 20.01041,18.21499 33.05469,17.66602 9.06094,-0.18602 17.89828,-3.71596 23.85351,-11.20508 13.264,-14.775 11.26902,-41.54081 -6.55468,-51.88281 -5.61365,-3.72566 -12.30481,-5.87749 -19.05469,-5.9043 -0.18754,-0.005 -0.37529,-0.0162 -0.5625,-0.0176 z m 152.94531,-0.002 c -0.46475,-0.003 -0.92869,0.003 -1.39062,0.0215 -24.83,-0.50856 -42.79689,31.40017 -28.83789,52.20117 10.773,18.346 39.87532,23.29695 54.48632,6.81445 14.074,-14.251 13.25606,-41.42394 -4.43554,-52.46094 -5.62472,-4.04625 -12.85092,-6.52543 -19.82227,-6.57617 z M 227.08789,19.84375 c 19.203,56.668 38.40638,113.34 57.60938,170 L 338.31055,81.433594 c 17.761,36.232996 35.52415,72.464216 53.28515,108.699216 19.244,-56.762 38.48843,-113.51906 57.73242,-170.28906 l -222.24023,0 z" />
</svg>
