<?xml version="1.0" encoding="UTF-8" standalone="no"?>
<svg id="Layer_1" xmlns:rdf="http://www.w3.org/1999/02/22-rdf-syntax-ns#" xmlns="http://www.w3.org/2000/svg" xml:space="preserve" viewBox="0 0 500 500" height="500" width="500" version="1.1" y="0px" x="0px" xmlns:cc="http://creativecommons.org/ns#" xmlns:dc="http://purl.org/dc/elements/1.1/"><g id="g46"><path id="path67" d="m246.99 0.09375c-1.09 10.889-1.09 14.155-10.89 25.045-14.15 11.978-91.47 76.221-98 207.98s102.36 205.81 102.36 205.81c0-0.02 0.01-0.03 0.01-0.05 8.74 21.63 7.61 56.67 7.61 56.67l13.07 4.36s-3.27-35.94 1.09-52.27c1.28-5.12 3.88-9.58 6.91-13.33 4.05-2.7 115.64-78.83 88.91-234.94-27.22-116.52-89.29-154.63-95.82-168.79-7.63-9.798-14.16-28.308-14.16-28.308l0.04 2.5737c-0.35-2.2572-0.72-3.8716-1.13-4.752z"/></g></svg>
