<?xml version="1.0" encoding="UTF-8" standalone="no"?>
<svg id="svg4171" xmlns:rdf="http://www.w3.org/1999/02/22-rdf-syntax-ns#" xmlns="http://www.w3.org/2000/svg" height="500" viewBox="0 0 500.00001 500" width="500" version="1.1" xmlns:cc="http://creativecommons.org/ns#" xmlns:dc="http://purl.org/dc/elements/1.1/">
 <path id="path4181" fill-rule="evenodd" d="m257.24 11.862c-8.4245-0.1514-17.483 3.3353-26.566 17.204-34.44 52.602-104.63 153.64-160.13 236.74-36.844 55.16-70.714 101.37-70.714 124.05-0.62514 31.87 17.496 78.11 106.84 71.86 0 0 48.558-1.2452 126.66-56.509 50.021-35.395 129.24-84.035 160.75-85.946 36.655-4.1654 72.276 6.2546 101.22 21.243-39.94-56.88-171.89-269.91-214.68-319.5-7.1-8.223-14.09-9.294-23.38-9.138zm175.52 332.42c-3.9521 0.0488-7.9473 0.34659-11.945 0.91643-71.777 5.7395-138.05 76.856-201.61 101.58 51.373 79.327 256.27 34.16 280.38-48.064 5.5836-31.809-28.62-54.909-66.824-54.436z"/>
 <path id="rect4284" d="m258.94 46.455c-0.51131 0.0076-0.97681 0.03725-1.3848 0.08008-3.323 0.1621-10.896 0.47579-17.908 9.6504-46.26 60.51-174.49 257.78-180.24 271.92-2.0149 6.045-4.1775 12.404-4.7109 17.492-1.572 14.995 4.205 25.737 15.75 38.602 24.741 28.717 75.578 16.287 75.578 16.287 7.237-0.497 27.232-5.5882 50.68-18.531 44.06-24.321 104.79-66.306 147.44-86.846 21.365-10.288 43.004-10.51 50.547-9.5859 18.119-2.4996 48.736 9.9961 48.736 9.9961s-123.02-189.56-168.82-241.07c-6.14-6.9046-12.097-8.0446-15.676-7.9922zm180.08 314.45 0.002 0.002c-2.4006 0.0575-4.9322 0.26463-7.5976 0.64453-71.782 5.74-118.62 66.254-168.04 87.006 42.54 58.557 174.98 5.4443 208.37-42.762 9.918-12.197 3.2746-45.753-32.734-44.891z" fill="#fff"/>
</svg>
