<?xml version="1.0" encoding="UTF-8" standalone="no"?>
<svg id="svg4171" xmlns:rdf="http://www.w3.org/1999/02/22-rdf-syntax-ns#" xmlns="http://www.w3.org/2000/svg" height="500" viewBox="0 0 500.00001 500" width="500" version="1.1" xmlns:cc="http://creativecommons.org/ns#" xmlns:dc="http://purl.org/dc/elements/1.1/">
 <path id="path4181" d="m257.24 11.862c-8.4245-0.1514-17.483 3.3353-26.566 17.204-34.44 52.602-104.63 153.64-160.13 236.74-36.844 55.16-70.714 101.37-70.714 124.05-0.62514 31.87 17.496 78.11 106.84 71.86 0 0 48.558-1.2452 126.66-56.509 50.021-35.395 129.24-84.035 160.75-85.946 36.655-4.1654 72.276 6.2546 101.22 21.243-39.94-56.88-171.89-269.91-214.68-319.5-7.1-8.223-14.09-9.294-23.38-9.138zm1.6943 34.595c3.5791-0.05238 9.535 1.0874 15.675 7.992 45.803 51.507 168.82 241.07 168.82 241.07s-30.616-12.495-48.735-9.9954c-7.5428-0.92361-29.182-0.70338-50.547 9.5851-42.653 20.54-103.38 62.526-147.44 86.847-23.448 12.943-43.443 18.034-50.68 18.531 0 0-50.837 12.429-75.578-16.288-11.545-12.865-17.322-23.607-15.75-38.602 0.53343-5.0884 2.6951-11.447 4.71-17.492 5.7434-14.138 133.98-211.41 180.24-271.92 7.0126-9.1746 14.584-9.487 17.907-9.6491 0.40796-0.04283 0.87399-0.07229 1.3853-0.07993zm173.83 297.83c-3.9521 0.0488-7.9473 0.34659-11.945 0.91643-71.777 5.7395-138.05 76.856-201.61 101.58 51.373 79.327 256.27 34.16 280.38-48.064 5.5836-31.809-28.62-54.909-66.824-54.436zm6.2551 16.618c36.009-0.86203 42.653 32.692 32.735 44.889-33.389 48.206-165.83 101.32-208.37 42.763 49.42-20.752 96.258-81.267 168.04-87.007 2.6654-0.3799 5.1972-0.58722 7.5978-0.6447z" fill-rule="evenodd"/>
</svg>
