<?xml version="1.0" encoding="UTF-8" standalone="no"?>
<!-- Generator: Adobe Illustrator 20.1.0, SVG Export Plug-In . SVG Version: 6.00 Build 0)  -->
<svg id="Layer_1" xmlns:rdf="http://www.w3.org/1999/02/22-rdf-syntax-ns#" xmlns="http://www.w3.org/2000/svg" xml:space="preserve" viewBox="0 0 500 500" height="500" width="500" version="1.1" y="0px" x="0px" xmlns:cc="http://creativecommons.org/ns#" xmlns:dc="http://purl.org/dc/elements/1.1/"><metadata id="metadata6176"><rdf:RDF><cc:Work rdf:about=""><dc:format>image/svg+xml</dc:format><dc:type rdf:resource="http://purl.org/dc/dcmitype/StillImage"/><dc:title/></cc:Work></rdf:RDF></metadata><style id="style6146" type="text/css">
	.st0{fill:#A41E11;}
	.st1{fill:#D82C20;}
	.st2{fill:#FFFFFF;}
	.st3{fill:#7A0C00;}
	.st4{fill:#AD2115;}
</style><g id="g6148" transform="matrix(5.6087 0 0 5.6087 -451.3 -27.656)"><path id="path6150" d="m259.75 206.26c-10.37 0.03-21.06 2.98-37.45 8.94-30.84 11.22-176.67 68.43-202.47 78.52-12.644 4.95-18.939 9.63-18.986 14.57-0.00042 0-0.08228 0.01-0.08228 0.01v50.48c0 5.05 7.2914 10.66 20.191 16.83 26.361 12.34 173.31 71.23 196.31 82.45 22.99 11.21 38.7 11.21 68.42-3.93 29.73-15.14 166.58-72.35 193.5-85.81 13.46-6.73 19.63-12.34 19.63-17.95v-49.36c-0.08-0.03-0.19-0.06-0.28-0.09-0.1-4.93-6.69-9.43-19.35-14.49-25.8-9.53-162.65-63.94-189.01-73.47-12.36-4.47-21.26-6.72-30.42-6.7z" transform="matrix(.17829 0 0 .17829 80.464 4.9309)"/><path id="path6154" d="m260.32 124.57c-10.38 0.11-21.07 3.08-37.45 8.74-30.85 10.66-176.68 67.87-202.48 77.97-13.192 5.16-19.474 9.88-18.954 14.99-0.0122 0-0.67428 0.15-0.67428 0.15v50.48c0 5.04 7.2914 10.65 20.191 16.82 26.361 12.34 173.31 71.23 196.31 82.45 22.99 11.22 39.26 11.22 68.42-3.93 29.73-15.14 166.58-72.35 193.5-85.81 13.46-6.73 19.63-12.34 19.63-17.95v-49.35c-0.06-0.03-0.16-0.06-0.23-0.08 0.18-4.95-6.27-9.36-18.84-14.51-25.8-9.53-162.65-63.93-189.01-73.47-12.36-4.47-21.26-6.6-30.41-6.5z" transform="matrix(.17829 0 0 .17829 80.464 4.9309)"/><path id="path6158" d="m260.32 39.318c-10.38 0.112-21.07 3.083-37.45 8.744-30.85 10.657-176.68 67.868-202.48 77.958-14.03 5.38-20.272 10.43-19.068 15.85l0.0003 49.21c0 5.05 7.2914 10.66 20.192 16.83 26.361 12.9 172.75 71.79 195.75 83.01 22.99 11.22 38.7 11.22 68.42-3.93 29.73-15.14 166.58-72.35 193.5-85.81 13.46-6.73 19.63-12.34 20.19-18.51v-49.36c-0.24-0.08-0.57-0.19-0.83-0.28-0.65-4.64-7.05-8.93-18.8-13.74-25.8-9.53-162.65-63.937-189.01-73.472-12.36-4.469-21.26-6.598-30.41-6.5z" transform="matrix(.17829 0 0 .17829 80.464 4.9309)"/></g></svg>
