<?xml version="1.0" encoding="UTF-8" standalone="no"?>
<svg id="Layer_1" xmlns:rdf="http://www.w3.org/1999/02/22-rdf-syntax-ns#" xmlns="http://www.w3.org/2000/svg" xml:space="preserve" viewBox="0 0 500 500" height="500" width="500" version="1.1" y="0px" x="0px" xmlns:cc="http://creativecommons.org/ns#" xmlns:dc="http://purl.org/dc/elements/1.1/"><g id="g6148" transform="translate(.00028)"><path id="path6150" d="m260.32 39.318c-10.38 0.112-21.07 3.084-37.45 8.744-30.85 10.658-176.68 67.868-202.48 77.958-14.029 5.38-20.272 10.43-19.068 15.85l0.0003 49.21c0 5.05 7.2908 10.66 20.192 16.83 0.959 0.47 2.121 1.02 3.386 1.6-0.965 0.38-3.748 1.47-4.509 1.77-13.192 5.16-19.475 9.88-18.956 14.99-0.0117 0-0.67328 0.15-0.67328 0.15v50.48c0 4.97 7.1225 10.5 19.699 16.57-0.111 0.05-0.524 0.21-0.631 0.25-12.644 4.95-18.939 9.63-18.986 14.57-0.00067 0-0.08228 0.01-0.08228 0.01v50.48c0 5.05 7.2918 10.66 20.191 16.83 26.361 12.34 173.31 71.23 196.31 82.45 22.99 11.21 38.7 11.21 68.42-3.93 29.73-15.14 166.58-72.35 193.5-85.81 13.46-6.73 19.63-12.34 19.63-17.95v-49.36c-0.08-0.03-0.19-0.06-0.28-0.09-0.1-4.93-6.69-9.43-19.35-14.49 13.46-6.73 19.63-12.34 19.63-17.95v-49.35c-0.06-0.03-0.16-0.06-0.23-0.08 0.18-4.95-6.27-9.36-18.84-14.51-1.12-0.42-2.71-1.02-4.23-1.59 1.27-0.61 2.69-1.28 3.68-1.77 13.46-6.73 19.63-12.34 20.19-18.51v-49.36c-0.24-0.08-0.58-0.19-0.84-0.28-0.65-4.64-7.05-8.93-18.8-13.74-25.8-9.53-162.65-63.937-189.01-73.472-12.36-4.469-21.26-6.598-30.41-6.5z"/></g></svg>
